<?xml version="1.0" encoding="UTF-8" standalone="no"?>
<svg width="40px" height="36px" viewBox="0 0 40 36" version="1.1" xmlns="http://www.w3.org/2000/svg" xmlns:xlink="http://www.w3.org/1999/xlink">
    <!-- Generator: Sketch 41 (35326) - http://www.bohemiancoding.com/sketch -->
    <title>Machine-Learning</title>
    <desc>Created with Sketch.</desc>
    <defs></defs>
    <g id="Page-1" stroke="none" stroke-width="1" fill="none" fill-rule="evenodd">
        <g id="Pricing_list" transform="translate(-721.000000, -1122.000000)" fill="#2B85E7">
            <g id="Machine-Learning" transform="translate(721.000000, 1122.000000)">
                <g transform="translate(-0.000000, 0.000000)" id="Shape">
                    <polygon points="29.547758 23.7475785 31.4415824 20.4088604 38.3461911 20.4088604 39.8090926 17.8289419 35.420239 10.0891865 28.2473845 10.0891865 26.259771 6.59870853 24.2272758 6.59870853 24.2272758 4.17054996 27.6346985 4.17054996 29.6223121 7.6610279 34.043373 7.6610279 29.740555 0.0730323633 21.2451099 0.0730323633 21.2451099 10.2409464 24.6622247 10.2409464 26.0538524 12.669105 21.2451099 12.669105 21.2451099 17.677182 25.7754672 17.677182 27.8427046 14.0349442 33.3170665 14.0349442 34.6949763 16.4631027 29.2195706 16.4631027 27.1523332 20.1053406 21.2451099 20.1053406 21.2451099 29.5144551 28.6106123 29.5144551 27.2325535 31.9426136 21.2451099 31.9426136 21.2451099 35.5848515 29.740555 35.5848515 36.9693251 22.837019 32.8184484 22.837019 30.924624 26.175737 24.2272758 26.175737 24.2272758 23.7475785"></polygon>
                    <polygon points="10.4076208 23.7475785 8.51379638 20.4088604 1.60918769 20.4088604 0.146286215 17.8289419 4.53513976 10.0891865 11.7079943 10.0891865 13.6956078 6.59870853 15.728103 6.59870853 15.728103 4.17054996 12.3206803 4.17054996 10.3330667 7.6610279 5.91200575 7.6610279 10.2148238 0.0730323633 18.7102689 0.0730323633 18.7102689 10.2409464 15.2931541 10.2409464 13.9015264 12.669105 18.7102689 12.669105 18.7102689 17.677182 14.1799116 17.677182 12.1126742 14.0349442 6.63831225 14.0349442 5.2604025 16.4631027 10.7358082 16.4631027 12.8030456 20.1053406 18.7102689 20.1053406 18.7102689 29.5144551 11.3447665 29.5144551 12.7228253 31.9426136 18.7102689 31.9426136 18.7102689 35.5848515 10.2148238 35.5848515 2.98605369 22.837019 7.13693039 22.837019 9.03075484 26.175737 15.728103 26.175737 15.728103 23.7475785"></polygon>
                </g>
            </g>
        </g>
    </g>
</svg>